<svg width="64" height="90" xmlns="http://www.w3.org/2000/svg" xmlns:xlink="http://www.w3.org/1999/xlink" xmlns:svgjs="http://svgjs.com/svgjs" viewBox="80 40 64 90"><svg width="53" height="13" xmlns="http://www.w3.org/2000/svg" xmlns:xlink="http://www.w3.org/1999/xlink" xmlns:svgjs="http://svgjs.com/svgjs" viewBox="0 0.32 53 12.359" x="85" y="40"><svg xmlns="http://www.w3.org/2000/svg" xmlns:xlink="http://www.w3.org/1999/xlink" width="53" height="13" viewBox="0.941 0 52.012 12.129"><path paint-order="stroke fill markers" fill-rule="evenodd" d="M.941 0h4.043v4.008h3.727V0h4.043v12.129H8.71V8.086H5.02v4.043H.94V-.001m17.157 4.044H14.53V0h11.195v4.043h-3.585v8.086h-4.043V4.043M27.5 0h4.238l2.602 4.27L36.94 0h4.238v12.129h-4.046V6.117l-2.828 4.36-2.832-4.36v6.012H27.5V-.001m15.68 0h4.047v8.122h5.726v4.008H43.18V-.001"/></svg></svg><svg width="64" height="73" xmlns="http://www.w3.org/2000/svg" xmlns:xlink="http://www.w3.org/1999/xlink" xmlns:svgjs="http://svgjs.com/svgjs" viewBox="0 0.213 64 72.573" fill="#e44d26" x="80" y="57"><svg xmlns="http://www.w3.org/2000/svg" xmlns:xlink="http://www.w3.org/1999/xlink" width="64" height="73" viewBox="0 0.683 63.773 72.317"><path paint-order="stroke fill markers" fill-rule="evenodd" d="M5.8 65.793L0 .683h63.773l-5.8 65.075L31.835 73 5.8 65.793"/></svg></svg><svg width="27" height="62" xmlns="http://www.w3.org/2000/svg" xmlns:xlink="http://www.w3.org/1999/xlink" xmlns:svgjs="http://svgjs.com/svgjs" viewBox="0.347 0 26.305 62" fill="#f16529" x="111" y="63"><svg xmlns="http://www.w3.org/2000/svg" xmlns:xlink="http://www.w3.org/1999/xlink" width="27" height="62" viewBox="0.887 0.027 26.066 61.437"><path paint-order="stroke fill markers" fill-rule="evenodd" d="M.887 61.465V.027h26.066L21.98 55.574.887 61.464"/></svg></svg><svg width="21" height="47" xmlns="http://www.w3.org/2000/svg" xmlns:xlink="http://www.w3.org/1999/xlink" xmlns:svgjs="http://svgjs.com/svgjs" viewBox="0.089 0 20.823 47" fill="#ebebeb" x="91" y="70"><svg xmlns="http://www.w3.org/2000/svg" xmlns:xlink="http://www.w3.org/1999/xlink" width="21" height="47" viewBox="0.848 0.988 20.039 45.231"><path paint-order="stroke fill markers" fill-rule="evenodd" d="M.848.988h20.039v7.985H9.602l.738 8.172h10.547v7.964H3.027L.847.99M3.38 29.112h8.015l.563 6.383 8.93 2.39v8.333l-16.383-4.57-1.125-12.536"/></svg></svg><svg width="21" height="47" xmlns="http://www.w3.org/2000/svg" xmlns:xlink="http://www.w3.org/1999/xlink" xmlns:svgjs="http://svgjs.com/svgjs" viewBox="0.099 0 20.802 47" fill="#fff" x="111" y="70"><svg xmlns="http://www.w3.org/2000/svg" width="21" height="47" viewBox="0.852 0.988 20.004 45.195"><path paint-order="stroke fill markers" fill-rule="evenodd" d="M20.855.988H.852v7.985h19.265l.738-7.985m-1.457 16.157H.852v7.98h9.843l-.93 10.371-8.913 2.39v8.297l16.347-4.535 2.2-24.503"/></svg></svg></svg>